<svg xmlns="http://www.w3.org/2000/svg" viewBox="0 0 399.8 78.21"><defs><style>.cls-1{fill:#231f20;}</style></defs><g id="Layer_2" data-name="Layer 2"><g id="Hamcker_Logo" data-name="Hamcker Logo"><g id="AllHamcker"><g id="Hamcker"><polygon id="H" class="cls-1" points="3.58 9.22 3.58 71.86 20.76 71.86 20.76 46.14 40.26 46.14 40.26 71.86 57.33 71.86 57.33 9.22 40.38 9.22 40.38 32.3 21.23 32.3 21.23 9.22 3.58 9.22"/><path id="a" class="cls-1" d="M110.17,38.22c-.12-1.39-.54-6.73-4.19-10.24s-6.77-5.3-16.69-5.49A46,46,0,0,0,69.1,26.87l5,11s20.77-9.77,19.28,3.34c-24.62-.89-29,7.07-29,16.42,0,4.84.94,15,15.57,15,11.13,0,15.27-7.66,15.27-7.66l3.46,7h11.54S110.28,39.6,110.17,38.22ZM86.48,60.9c-2.81,0-5.23-.69-5.23-5,0-7,12.27-5.8,12.27-5.8S95.36,60.9,86.48,60.9Z"/><path id="m" class="cls-1" d="M117,23.34V71.71h16.84V45.33s.77-9.84,7-9.84c6,0,5.92,7,5.92,7l.31,29.22h16.54v-26s.76-10.46,7-10.46c5.61,0,6,6.84,6,6.84l.31,29.61h16.23V36s-.64-13.76-16.71-13.77c-10.52,0-12.41,6.42-14.57,6.5-1.46,0-3.18-6.5-14.94-6.5-11.31,0-13.23,7.07-14.54,7.15S130,23.34,130,23.34Z"/><path id="cBox" class="cls-1" d="M251.36,0H201.08a.82.82,0,0,0-.82.81V77.4a.82.82,0,0,0,.82.81h50.28a.82.82,0,0,0,.82-.81V.81A.82.82,0,0,0,251.36,0Zm-6.07,55.18V68.56s-5.69,4.1-16.38,4.07c-10.39,0-23.53-4.07-23.53-25.65,0-15.73,10.07-24.72,25.07-24.72,7.92,0,16.38,3.84,16.38,3.84l-4.77,12.46s-19.88-10.07-19.53,8.88C222.91,68.63,245.29,55.18,245.29,55.18Z"/><path id="k" class="cls-1" d="M258.64,5V71.71h17.07V58.48l5.19-4L292,71.71h19.15L293.24,44.18,309.62,23.3H291.17S279.43,37.78,274.79,45c1.52-5.22,1-40,1-40Z"/><path id="e" class="cls-1" d="M334.66,22.26C321.16,22.26,311.6,32,311.6,48c0,23.7,21.21,24.61,27.09,24.61a47.81,47.81,0,0,0,16.62-3.41V57.1s-25.08,11-26.42-5.08c5.42-.11,22,.18,29.65.12C358.3,43.37,362,22.26,334.66,22.26Zm8.76,19.3H329s.24-8,6.93-8C344,33.56,343.42,41.56,343.42,41.56Z"/><path id="r" class="cls-1" d="M365.42,23.18V71.79h16.92V46.18s.27-10.23,16.15-7.54c.51-2.7,1.07-12.3,1.31-15.84-13.46-2-18.85,8.77-18.85,8.77l-3.15-8.39Z"/></g><path id="singleC" class="cls-1" d="M246.83,26.1s-8.46-3.84-16.38-3.84c-15,0-25.07,9-25.07,24.72,0,21.58,13.14,25.63,23.53,25.65,10.69,0,16.38-4.07,16.38-4.07V55.17s-22.38,13.46-22.76-7.73c-.34-18.95,19.53-8.88,19.53-8.88Z"/><path id="HBox" class="cls-1" d="M0,1.5V76.71a1.5,1.5,0,0,0,1.5,1.5H58.7a1.5,1.5,0,0,0,1.5-1.5V1.5A1.5,1.5,0,0,0,58.7,0H1.5A1.5,1.5,0,0,0,0,1.5ZM57.33,71.86H40.26V46.13H20.76V71.86H3.57V9.22H21.22V32.29H40.37V9.22h17Z"/></g></g></g></svg>