<svg xmlns="http://www.w3.org/2000/svg" viewBox="0 0 426.13 95.3"><defs><style>.cls-1{fill:#231f20;}</style></defs><g id="Layer_2" data-name="Layer 2"><g id="HamckerTypeLogo"><g id="Logo"><g id="Hamcker"><path id="H" class="cls-1" d="M45.35,14.29H62.27V89.47H45.35V57.58H16.92V89.47H0V14.29H16.92V43H45.35Z"/><path id="a" class="cls-1" d="M95.79,30.89a37.37,37.37,0,0,1,11.94,1.63,18.47,18.47,0,0,1,7.64,4.66,17.22,17.22,0,0,1,4.07,7.38,36.18,36.18,0,0,1,1.19,9.65V87.84q-3.47.76-9.65,1.79a92.4,92.4,0,0,1-15,1,47.57,47.57,0,0,1-10-1,21.79,21.79,0,0,1-7.75-3.2,14.56,14.56,0,0,1-5-5.81,19.94,19.94,0,0,1-1.74-8.78,16.67,16.67,0,0,1,2-8.47,15.55,15.55,0,0,1,5.37-5.53,24.24,24.24,0,0,1,7.7-3,42.8,42.8,0,0,1,9-.92,51.41,51.41,0,0,1,5.59.27,24.67,24.67,0,0,1,4,.7V53.45a8.94,8.94,0,0,0-2.49-6.61q-2.5-2.51-8.68-2.5a55,55,0,0,0-8.14.6,35.14,35.14,0,0,0-6.94,1.68l-2.06-13c.94-.29,2.11-.6,3.52-.92s3-.61,4.61-.87,3.42-.47,5.27-.65S93.91,30.89,95.79,30.89Zm1.3,47.3c1.59,0,3.11,0,4.56-.11a29.67,29.67,0,0,0,3.47-.33V65.5a29.53,29.53,0,0,0-2.93-.44,33.76,33.76,0,0,0-3.58-.22,31.94,31.94,0,0,0-4.28.28,11.07,11.07,0,0,0-3.53,1,5.92,5.92,0,0,0-2.38,2.06,5.65,5.65,0,0,0-.87,3.25c0,2.53.85,4.29,2.55,5.26A14,14,0,0,0,97.09,78.19Z"/><path id="m" class="cls-1" d="M163.38,59.2q0-7.8-2-11.06c-1.34-2.17-3.63-3.26-6.89-3.26a31.09,31.09,0,0,0-3.14.17c-1.09.11-2.14.23-3.15.38v44H132V34.36c1.37-.36,3-.74,4.82-1.14s3.8-.76,5.86-1.08,4.18-.58,6.35-.76,4.3-.27,6.4-.27a26.87,26.87,0,0,1,10,1.57,22.91,22.91,0,0,1,6.35,3.74,30.25,30.25,0,0,1,16.27-5.31A28.62,28.62,0,0,1,199.34,33a17,17,0,0,1,7,5.37,20.46,20.46,0,0,1,3.58,8.25,53.31,53.31,0,0,1,1,10.63V89.47H194.73V59.2q0-7.8-2-11.06c-1.34-2.17-3.63-3.26-6.89-3.26a14.73,14.73,0,0,0-3.63.65,14.28,14.28,0,0,0-3.85,1.63,24.85,24.85,0,0,1,1,5.26q.23,2.78.22,5.92V89.47H163.38Z"/><path id="c" class="cls-1" d="M219.57,60.94a33.58,33.58,0,0,1,2-11.66,27.3,27.3,0,0,1,15-16A30.38,30.38,0,0,1,249,30.89a40.2,40.2,0,0,1,8.36.81A40.84,40.84,0,0,1,264.71,34L261.34,47a39.78,39.78,0,0,0-5-1.52,25.74,25.74,0,0,0-6.07-.65q-7.17,0-10.69,4.44t-3.53,11.72q0,7.71,3.31,11.93t11.56,4.23a39.8,39.8,0,0,0,6.29-.54,26.94,26.94,0,0,0,6.18-1.73l2.28,13.23a37.68,37.68,0,0,1-7.05,2.06,46.4,46.4,0,0,1-9.33.87,35.19,35.19,0,0,1-13.45-2.33,25.36,25.36,0,0,1-9.28-6.35,24.73,24.73,0,0,1-5.31-9.49A40,40,0,0,1,219.57,60.94Z"/><path id="k" class="cls-1" d="M289.44,52.9c1.59-1.73,3.23-3.52,4.93-5.39s3.34-3.72,4.93-5.56,3.09-3.57,4.5-5.23,2.62-3.09,3.63-4.31h19.22Q320.89,39,315.42,45t-12,12.39a76.44,76.44,0,0,1,6.73,7q3.46,4.08,6.72,8.43t6,8.69q2.72,4.35,4.56,7.93H308.82c-1.16-1.88-2.47-4-3.95-6.25s-3.05-4.57-4.71-6.85-3.41-4.48-5.25-6.58a45.13,45.13,0,0,0-5.47-5.33v25H273.27V7.89l16.17-2.6Z"/><path id="e" class="cls-1" d="M326.21,61.37a35,35,0,0,1,2.33-13.29,28.64,28.64,0,0,1,6.13-9.49,25.61,25.61,0,0,1,8.74-5.75,27.36,27.36,0,0,1,10.14-2q12.15,0,19.2,7.43t7.05,21.86c0,.94,0,2-.1,3.09s-.15,2.12-.22,3H342.81a10.73,10.73,0,0,0,4.67,7.92q4.11,2.94,11.06,2.93a46.79,46.79,0,0,0,8.73-.81,32.56,32.56,0,0,0,7-2l2.17,13.13a22.26,22.26,0,0,1-3.47,1.3,43.1,43.1,0,0,1-4.83,1.14q-2.65.5-5.69.81a56.3,56.3,0,0,1-6.08.33A36,36,0,0,1,343,88.71a26.09,26.09,0,0,1-9.43-6.24A24.75,24.75,0,0,1,328,73.09,37.28,37.28,0,0,1,326.21,61.37Zm38-6.18a16.94,16.94,0,0,0-.7-4,10.13,10.13,0,0,0-1.85-3.48,9.85,9.85,0,0,0-3.14-2.49,10.28,10.28,0,0,0-4.72-1,10.81,10.81,0,0,0-4.67.93,9.5,9.5,0,0,0-3.25,2.44,10.81,10.81,0,0,0-2,3.52,23.57,23.57,0,0,0-1,4.07Z"/><path id="r" class="cls-1" d="M423.42,46.73q-2.18-.54-5.1-1.14A31.41,31.41,0,0,0,412,45a29.29,29.29,0,0,0-3.63.27,20.75,20.75,0,0,0-3.2.6V89.47H389v-54a95.84,95.84,0,0,1,10.25-2.88,59.25,59.25,0,0,1,13.18-1.36c.87,0,1.91.06,3.14.17s2.46.25,3.69.43,2.46.4,3.69.65a18.17,18.17,0,0,1,3.15.92Z"/></g><path id="cBox" class="cls-1" d="M267.93,0H216.75a1.5,1.5,0,0,0-1.5,1.49V93.8a1.5,1.5,0,0,0,1.5,1.5h51.18a1.5,1.5,0,0,0,1.5-1.5V1.49A1.5,1.5,0,0,0,267.93,0Zm-9.31,90.12a46.37,46.37,0,0,1-9.32.87,35.24,35.24,0,0,1-13.46-2.33,25.32,25.32,0,0,1-9.27-6.35,24.62,24.62,0,0,1-5.32-9.49,40.32,40.32,0,0,1-1.68-11.88,33.58,33.58,0,0,1,2-11.66,27.24,27.24,0,0,1,15-16A30.47,30.47,0,0,1,249,30.89a40,40,0,0,1,8.35.81A40.81,40.81,0,0,1,264.7,34l-3.36,12.91a42.12,42.12,0,0,0-5-1.51,25.83,25.83,0,0,0-6.08-.65q-7.16,0-10.68,4.44t-3.53,11.72q0,7.71,3.31,11.93c2.2,2.82,6.06,4.23,11.55,4.23a39.7,39.7,0,0,0,6.29-.54,26.39,26.39,0,0,0,6.19-1.74l2.28,13.24A37.81,37.81,0,0,1,258.62,90.12Z"/></g></g></g></svg>